# xmcd CD database file
#
# Track frame offsets:
#	150
#	17657
#	33892
#	53842
#	68960
#	86475
#	103167
#	118672
#	131552
#	144112
#
# Disc length: 2144 seconds
#
# Revision: 3
# Processed by: cddbd v1.4PL0 Copyright (c) Steve Scherf et al.
# Submitted via: CDex 1.50
#
DISCID=80085e0a
DTITLE=Dolly Parton - The Great Pretender
DYEAR=1983
DGENRE=Country
TTITLE0=Save The Last Dance For Me
TTITLE1=I Walk The Line
TTITLE2=Turn, Turn, Turn (To Everything There Is A Season)
TTITLE3=Downtown
TTITLE4=We Had It All
TTITLE5=She Don't Love You (Like I Love You)
TTITLE6=We'll Sing In The Sunshine
TTITLE7=I Can't Help Myself (Sugar Pie, Honey Bunch)
TTITLE8=Elusive Butterfly
TTITLE9=The Great Pretender
EXTD=YEAR: 1983
EXTT0=
EXTT1=
EXTT2=
EXTT3=
EXTT4=
EXTT5=
EXTT6=
EXTT7=
EXTT8=
EXTT9=
PLAYORDER=
